<svg xmlns="http://www.w3.org/2000/svg" viewBox="0 0 145 129.5"><defs><style>.cls-1{fill:#3666af;stroke:#fff;stroke-miterlimit:10;}</style></defs><title>Fichier 2</title><g id="Calque_2" data-name="Calque 2"><g id="Calque_1-2" data-name="Calque 1"><path class="cls-1" d="M11,4.68c.23-2.36,2.46-2.33,2.86-.11,1.63,9,3.47,13.1,8.23,20,6.34,9.15,10.84,12.71,20.48,16.84a1.8,1.8,0,0,1,1.13,2.36l-3.75,6.5-3.75,6.5c-.46.8-2.07.67-3.27-.31C23.47,47,19.07,40.73,13.68,28.58,10.57,19.23,10,14.24,11,4.68Z"/><path class="cls-1" d="M134,4.35c-.22-2.18-2.3-2.15-2.67-.1-1.65,9.18-3.54,13.38-8.44,20.35C116.5,33.68,112,37.19,102.38,41.27a1.65,1.65,0,0,0-1,2.19c1.52,2.63,2.28,3.95,3.79,6.59l3.8,6.58c.43.75,1.93.63,3-.28,9.4-9.38,13.82-15.59,19.23-27.66C134.42,19.17,135,14.08,134,4.35Z"/><path class="cls-1" d="M142.33,105l-28-48.26-28-48.27a16.07,16.07,0,0,0-27.78,0l-28,48.27L2.67,105a16,16,0,0,0,13.9,24H36.74a14.73,14.73,0,0,1,14.55-12.32H93.71A14.73,14.73,0,0,1,108.26,129h20.17A16,16,0,0,0,142.33,105ZM83.86,82H61.57A9.89,9.89,0,0,1,53,67.12l5.58-9.62,5.57-9.62a9.94,9.94,0,0,1,17.19,0l5.57,9.62,5.58,9.62A9.89,9.89,0,0,1,83.86,82Z"/></g></g></svg>